# MagicaVoxel @ Ephtracy

# group
g FLAG

# material
mtllib FLAG.mtl
usemtl palette

# normals
vn -1 0 0
vn 1 0 0
vn 0 0 1
vn 0 0 -1
vn 0 -1 0
vn 0 1 0

# texcoords
vt 0.197266 0.5
vt 0.958984 0.5

# verts
v 1 6 2
v 1 6 1
v 1 9 4
v 1 9 3
v 1 10 -0
v 1 10 -1
v 1 12 4
v 1 12 3
v 1 12 -0
v 1 12 -1
v 1 13 2
v 1 13 1
v 2 9 3
v 2 9 2
v 2 9 1
v 2 9 -0
v 2 10 3
v 2 10 2
v 2 10 -0
v 2 11 3
v 2 11 2
v 2 11 1
v 2 11 -0
v 2 12 4
v 2 12 3
v 2 12 2
v 2 12 1
v 2 12 -0
v 2 12 -1
v 2 13 4
v 2 13 3
v 2 13 1
v 2 13 -1
v 2 6 2
v 2 6 1
v 2 9 2
v 2 9 1
v 3 9 4
v 3 9 -0
v 3 10 3
v 3 10 2
v 3 10 -0
v 3 10 -1
v 3 11 3
v 3 11 2
v 3 11 1
v 3 11 -0
v 3 12 3
v 3 12 2
v 3 12 1
v 3 12 -0
v 3 13 4
v 3 13 3
v 3 13 2
v 3 13 -1
v 1 9 4
v 1 12 4
v 2 12 4
v 2 13 4
v 3 9 4
v 3 13 4
v 1 6 2
v 1 13 2
v 2 6 2
v 2 9 2
v 2 10 2
v 2 11 2
v 2 12 2
v 2 13 2
v 3 10 2
v 3 11 2
v 3 12 2
v 3 13 2
v 1 10 -0
v 1 12 -0
v 2 10 -0
v 2 11 -0
v 2 12 -0
v 3 11 -0
v 3 12 -0
v 1 9 3
v 1 12 3
v 2 9 3
v 2 10 3
v 2 11 3
v 2 12 3
v 2 13 3
v 3 10 3
v 3 11 3
v 3 12 3
v 3 13 3
v 1 6 1
v 1 13 1
v 2 6 1
v 2 9 1
v 2 11 1
v 2 12 1
v 2 13 1
v 3 11 1
v 3 12 1
v 2 9 -0
v 2 10 -0
v 3 9 -0
v 3 10 -0
v 1 10 -1
v 1 12 -1
v 2 12 -1
v 2 13 -1
v 3 10 -1
v 3 13 -1
v 1 6 2
v 2 6 2
v 1 6 1
v 2 6 1
v 1 9 4
v 3 9 4
v 1 9 3
v 2 9 3
v 2 9 2
v 2 9 1
v 2 9 -0
v 3 9 -0
v 1 10 -0
v 2 10 -0
v 3 10 -0
v 1 10 -1
v 3 10 -1
v 2 11 3
v 3 11 3
v 2 11 2
v 3 11 2
v 2 12 1
v 3 12 1
v 2 12 -0
v 3 12 -0
v 2 10 3
v 3 10 3
v 2 10 2
v 3 10 2
v 2 11 1
v 3 11 1
v 2 11 -0
v 3 11 -0
v 1 12 4
v 2 12 4
v 1 12 3
v 2 12 3
v 3 12 3
v 2 12 2
v 3 12 2
v 1 12 -0
v 2 12 -0
v 1 12 -1
v 2 12 -1
v 2 13 4
v 3 13 4
v 2 13 3
v 3 13 3
v 1 13 2
v 2 13 2
v 3 13 2
v 1 13 1
v 2 13 1
v 2 13 -1
v 3 13 -1

# faces
f 7/2/1 4/2/1 3/2/1
f 8/2/1 4/2/1 7/2/1
f 9/2/1 6/2/1 5/2/1
f 10/2/1 6/2/1 9/2/1
f 11/1/1 2/1/1 1/1/1
f 12/1/1 2/1/1 11/1/1
f 17/2/1 14/2/1 13/2/1
f 18/2/1 14/2/1 17/2/1
f 19/2/1 16/2/1 15/2/1
f 22/2/1 19/2/1 15/2/1
f 23/2/1 19/2/1 22/2/1
f 25/2/1 21/2/1 20/2/1
f 26/2/1 21/2/1 25/2/1
f 30/2/1 25/2/1 24/2/1
f 31/2/1 25/2/1 30/2/1
f 32/2/1 28/2/1 27/2/1
f 32/2/1 29/2/1 28/2/1
f 33/2/1 29/2/1 32/2/1
f 34/1/2 35/1/2 36/1/2
f 36/1/2 35/1/2 37/1/2
f 38/2/2 39/2/2 40/2/2
f 40/2/2 39/2/2 41/2/2
f 41/2/2 39/2/2 42/2/2
f 38/2/2 40/2/2 44/2/2
f 42/2/2 43/2/2 45/2/2
f 41/2/2 42/2/2 45/2/2
f 45/2/2 43/2/2 46/2/2
f 46/2/2 43/2/2 47/2/2
f 38/2/2 44/2/2 48/2/2
f 44/2/2 45/2/2 48/2/2
f 45/2/2 46/2/2 48/2/2
f 48/2/2 46/2/2 49/2/2
f 49/2/2 46/2/2 50/2/2
f 47/2/2 43/2/2 51/2/2
f 38/2/2 48/2/2 52/2/2
f 52/2/2 48/2/2 53/2/2
f 49/2/2 50/2/2 54/2/2
f 50/2/2 51/2/2 54/2/2
f 51/2/2 43/2/2 55/2/2
f 54/2/2 51/2/2 55/2/2
f 58/2/3 57/2/3 56/2/3
f 60/2/3 58/2/3 56/2/3
f 60/2/3 59/2/3 58/2/3
f 61/2/3 59/2/3 60/2/3
f 64/1/3 63/1/3 62/1/3
f 65/1/3 63/1/3 64/1/3
f 66/1/3 63/1/3 65/1/3
f 67/1/3 63/1/3 66/1/3
f 68/1/3 63/1/3 67/1/3
f 69/1/3 63/1/3 68/1/3
f 70/2/3 67/2/3 66/2/3
f 71/2/3 67/2/3 70/2/3
f 72/2/3 69/2/3 68/2/3
f 73/2/3 69/2/3 72/2/3
f 76/2/3 75/2/3 74/2/3
f 77/2/3 75/2/3 76/2/3
f 78/2/3 75/2/3 77/2/3
f 79/2/3 78/2/3 77/2/3
f 80/2/3 78/2/3 79/2/3
f 81/2/4 82/2/4 83/2/4
f 83/2/4 82/2/4 84/2/4
f 84/2/4 82/2/4 85/2/4
f 85/2/4 82/2/4 86/2/4
f 84/2/4 85/2/4 88/2/4
f 88/2/4 85/2/4 89/2/4
f 86/2/4 87/2/4 90/2/4
f 90/2/4 87/2/4 91/2/4
f 92/1/4 93/1/4 94/1/4
f 94/1/4 93/1/4 95/1/4
f 95/1/4 93/1/4 96/1/4
f 96/1/4 93/1/4 97/1/4
f 97/1/4 93/1/4 98/1/4
f 96/2/4 97/2/4 99/2/4
f 99/2/4 97/2/4 100/2/4
f 101/2/4 102/2/4 103/2/4
f 103/2/4 102/2/4 104/2/4
f 105/2/4 106/2/4 107/2/4
f 105/2/4 107/2/4 109/2/4
f 107/2/4 108/2/4 109/2/4
f 109/2/4 108/2/4 110/2/4
f 113/1/5 112/1/5 111/1/5
f 114/1/5 112/1/5 113/1/5
f 117/2/5 116/2/5 115/2/5
f 118/2/5 116/2/5 117/2/5
f 119/2/5 116/2/5 118/2/5
f 120/2/5 116/2/5 119/2/5
f 121/2/5 116/2/5 120/2/5
f 122/2/5 116/2/5 121/2/5
f 126/2/5 124/2/5 123/2/5
f 126/2/5 125/2/5 124/2/5
f 127/2/5 125/2/5 126/2/5
f 130/2/5 129/2/5 128/2/5
f 131/2/5 129/2/5 130/2/5
f 134/2/5 133/2/5 132/2/5
f 135/2/5 133/2/5 134/2/5
f 136/2/6 137/2/6 138/2/6
f 138/2/6 137/2/6 139/2/6
f 140/2/6 141/2/6 142/2/6
f 142/2/6 141/2/6 143/2/6
f 144/2/6 145/2/6 146/2/6
f 146/2/6 145/2/6 147/2/6
f 147/2/6 148/2/6 149/2/6
f 149/2/6 148/2/6 150/2/6
f 151/2/6 152/2/6 153/2/6
f 153/2/6 152/2/6 154/2/6
f 155/2/6 156/2/6 157/2/6
f 157/2/6 156/2/6 158/2/6
f 159/1/6 160/1/6 162/1/6
f 160/2/6 161/2/6 163/2/6
f 162/1/6 160/1/6 163/1/6
f 163/2/6 161/2/6 164/2/6
f 164/2/6 161/2/6 165/2/6
